<mxfile host="app.diagrams.net" agent="Mozilla/5.0 (Windows NT 10.0; Win64; x64; rv:132.0) Gecko/20100101 Firefox/132.0" version="24.8.6">
  <diagram name="Page-1" id="2fNfKSb1KPGcxiVhra7v">
    <mxGraphModel dx="562" dy="911" grid="1" gridSize="10" guides="1" tooltips="1" connect="1" arrows="1" fold="1" page="1" pageScale="1" pageWidth="850" pageHeight="1100" math="0" shadow="0">
      <root>
        <mxCell id="0" />
        <mxCell id="1" parent="0" />
        <mxCell id="tdsLVwdnxEBtSQGXes7N-1" value="" style="endArrow=classic;html=1;rounded=0;" parent="1" target="tdsLVwdnxEBtSQGXes7N-2" edge="1">
          <mxGeometry width="50" height="50" relative="1" as="geometry">
            <mxPoint x="20" y="349" as="sourcePoint" />
            <mxPoint x="100" y="349" as="targetPoint" />
          </mxGeometry>
        </mxCell>
        <mxCell id="tdsLVwdnxEBtSQGXes7N-23" value="" style="edgeStyle=orthogonalEdgeStyle;rounded=0;orthogonalLoop=1;jettySize=auto;html=1;entryX=0;entryY=0.5;entryDx=0;entryDy=0;curved=1;" parent="1" source="tdsLVwdnxEBtSQGXes7N-2" edge="1" target="tdsLVwdnxEBtSQGXes7N-25">
          <mxGeometry relative="1" as="geometry">
            <mxPoint x="290" y="349" as="targetPoint" />
          </mxGeometry>
        </mxCell>
        <mxCell id="f8j34iCt5yAg45JyZdFL-2" style="edgeStyle=orthogonalEdgeStyle;rounded=0;orthogonalLoop=1;jettySize=auto;html=1;exitX=0.5;exitY=1;exitDx=0;exitDy=0;entryX=0;entryY=0.5;entryDx=0;entryDy=0;curved=1;" parent="1" source="tdsLVwdnxEBtSQGXes7N-2" target="f8j34iCt5yAg45JyZdFL-1" edge="1">
          <mxGeometry relative="1" as="geometry" />
        </mxCell>
        <mxCell id="tdsLVwdnxEBtSQGXes7N-2" value="q0" style="ellipse;whiteSpace=wrap;html=1;aspect=fixed;" parent="1" vertex="1">
          <mxGeometry x="60" y="309" width="81" height="81" as="geometry" />
        </mxCell>
        <mxCell id="tdsLVwdnxEBtSQGXes7N-3" value="start" style="text;html=1;align=center;verticalAlign=middle;resizable=0;points=[];autosize=1;strokeColor=none;fillColor=none;" parent="1" vertex="1">
          <mxGeometry x="12" y="320" width="50" height="30" as="geometry" />
        </mxCell>
        <mxCell id="tdsLVwdnxEBtSQGXes7N-24" value="+,-,*,/" style="text;html=1;align=center;verticalAlign=middle;resizable=0;points=[];autosize=1;strokeColor=none;fillColor=none;" parent="1" vertex="1">
          <mxGeometry x="185" y="309" width="50" height="30" as="geometry" />
        </mxCell>
        <mxCell id="8RY9PvxjwWa64mcCoNo5-8" style="edgeStyle=orthogonalEdgeStyle;rounded=0;orthogonalLoop=1;jettySize=auto;html=1;curved=1;exitX=1;exitY=0.5;exitDx=0;exitDy=0;" edge="1" parent="1" source="tdsLVwdnxEBtSQGXes7N-25" target="8RY9PvxjwWa64mcCoNo5-4">
          <mxGeometry relative="1" as="geometry" />
        </mxCell>
        <mxCell id="tdsLVwdnxEBtSQGXes7N-25" value="q2" style="ellipse;shape=doubleEllipse;whiteSpace=wrap;html=1;aspect=fixed;" parent="1" vertex="1">
          <mxGeometry x="280" y="309" width="81" height="81" as="geometry" />
        </mxCell>
        <mxCell id="8RY9PvxjwWa64mcCoNo5-2" style="edgeStyle=orthogonalEdgeStyle;rounded=0;orthogonalLoop=1;jettySize=auto;html=1;curved=1;" edge="1" parent="1" source="f8j34iCt5yAg45JyZdFL-1" target="tdsLVwdnxEBtSQGXes7N-25">
          <mxGeometry relative="1" as="geometry" />
        </mxCell>
        <mxCell id="8RY9PvxjwWa64mcCoNo5-9" style="edgeStyle=orthogonalEdgeStyle;rounded=0;orthogonalLoop=1;jettySize=auto;html=1;curved=1;exitX=0.5;exitY=1;exitDx=0;exitDy=0;" edge="1" parent="1" source="f8j34iCt5yAg45JyZdFL-1" target="8RY9PvxjwWa64mcCoNo5-4">
          <mxGeometry relative="1" as="geometry" />
        </mxCell>
        <mxCell id="f8j34iCt5yAg45JyZdFL-1" value="q1" style="ellipse;whiteSpace=wrap;html=1;aspect=fixed;" parent="1" vertex="1">
          <mxGeometry x="169.5" y="420" width="81" height="81" as="geometry" />
        </mxCell>
        <mxCell id="f8j34iCt5yAg45JyZdFL-3" value=":" style="text;html=1;align=center;verticalAlign=middle;resizable=0;points=[];autosize=1;strokeColor=none;fillColor=none;" parent="1" vertex="1">
          <mxGeometry x="115" y="410" width="30" height="30" as="geometry" />
        </mxCell>
        <mxCell id="8RY9PvxjwWa64mcCoNo5-3" value="=" style="text;html=1;align=center;verticalAlign=middle;resizable=0;points=[];autosize=1;strokeColor=none;fillColor=none;" vertex="1" parent="1">
          <mxGeometry x="271" y="420" width="30" height="30" as="geometry" />
        </mxCell>
        <mxCell id="8RY9PvxjwWa64mcCoNo5-4" value="trap" style="ellipse;whiteSpace=wrap;html=1;aspect=fixed;" vertex="1" parent="1">
          <mxGeometry x="340" y="480" width="81" height="81" as="geometry" />
        </mxCell>
        <mxCell id="8RY9PvxjwWa64mcCoNo5-10" value="+,-,*,/,:,=" style="text;html=1;align=center;verticalAlign=middle;resizable=0;points=[];autosize=1;strokeColor=none;fillColor=none;" vertex="1" parent="1">
          <mxGeometry x="380" y="400" width="70" height="30" as="geometry" />
        </mxCell>
        <mxCell id="8RY9PvxjwWa64mcCoNo5-11" value="+,-,*,/,:" style="text;html=1;align=center;verticalAlign=middle;resizable=0;points=[];autosize=1;strokeColor=none;fillColor=none;" vertex="1" parent="1">
          <mxGeometry x="255.5" y="490" width="60" height="30" as="geometry" />
        </mxCell>
      </root>
    </mxGraphModel>
  </diagram>
</mxfile>
